HIERARCHY
ROOT Hips
{
	OFFSET 0.00000 0.00000 0.00000
	CHANNELS 6 Xposition Yposition Zposition Zrotation Yrotation Xrotation 
	JOINT LHipJoint
	{
		OFFSET 0 0 0
		CHANNELS 3 Zrotation Yrotation Xrotation
		JOINT LeftHip
		{
			OFFSET 1.77779 -1.88989 0.48267
			CHANNELS 3 Zrotation Yrotation Xrotation
			JOINT LeftKnee
			{
				OFFSET 2.53442 -6.96327 0.00000
				CHANNELS 3 Zrotation Yrotation Xrotation
				JOINT LeftAnkle
				{
					OFFSET 2.71068 -7.44755 0.00000
					CHANNELS 3 Zrotation Yrotation Xrotation
					JOINT LeftToe
					{
						OFFSET 0.17992 -0.49431 2.22524
						CHANNELS 3 Zrotation Yrotation Xrotation
						End Site
						{
							OFFSET 0.00000 -0.00000 1.14687
						}
					}
				}
			}
		}
	}
	JOINT RHipJoint
	{
		OFFSET 0 0 0
		CHANNELS 3 Zrotation Yrotation Xrotation
		JOINT RightHip
		{
			OFFSET -1.58469 -1.88989 0.48267
			CHANNELS 3 Zrotation Yrotation Xrotation
			JOINT RightKnee
			{
				OFFSET -2.60386 -7.15404 0.00000
				CHANNELS 3 Zrotation Yrotation Xrotation
				JOINT RightAnkle
				{
					OFFSET -2.73334 -7.50979 0.00000
					CHANNELS 3 Zrotation Yrotation Xrotation
					JOINT RightToe
					{
						OFFSET -0.25618 -0.70384 2.21822
						CHANNELS 3 Zrotation Yrotation Xrotation
						End Site
						{
							OFFSET -0.00000 -0.00000 1.16381
						}
					}
				}
			}
		}
	}
	JOINT lowerback
	{
		OFFSET 0 0 0
		CHANNELS 3 Zrotation Yrotation Xrotation
		JOINT Chest
		{
			OFFSET 0.03410 2.01612 -0.22230
			CHANNELS 3 Zrotation Yrotation Xrotation
			JOINT Chest2
			{
				OFFSET 0.03465 2.03012 0.00937
				CHANNELS 3 Zrotation Yrotation Xrotation
				JOINT lowerneck
				{
					OFFSET 0 0 0
					CHANNELS 3 Zrotation Yrotation Xrotation
					JOINT Neck
					{
						OFFSET -0.00219 1.70459 0.20857
						CHANNELS 3 Zrotation Yrotation Xrotation
						JOINT Head
						{
							OFFSET 0.02518 1.72339 -0.22179
							CHANNELS 3 Zrotation Yrotation Xrotation
							End Site
							{
								OFFSET 0.00282 1.74122 -0.09823
							}
						}
					}
				}
				JOINT LeftCollar
				{
					OFFSET 0 0 0
					CHANNELS 3 Zrotation Yrotation Xrotation
					JOINT LeftShoulder
					{
						OFFSET 3.36358 1.00547 -0.37661
CHANNELS 3 Zrotation Xrotation Yrotation
						JOINT LeftElbow
						{
OFFSET 0 -5.065070 0.000000
CHANNELS 3 Zrotation Xrotation Yrotation
							JOINT LeftWrist
							{
OFFSET 0 -3.601960 0.000000
CHANNELS 3 Zrotation Xrotation Yrotation
								JOINT lhand
								{
									OFFSET 0 0 0
CHANNELS 3 Zrotation Xrotation Yrotation
									JOINT LFingers
									{
OFFSET 0 -0.450350 0.000000
CHANNELS 3 Zrotation Xrotation Yrotation
										End Site
										{
OFFSET 0 -0.363080 0.000000
										}
									}
								}
								JOINT LThumb
								{
OFFSET 0 0.000000 0.000000
CHANNELS 3 Zrotation Xrotation Yrotation
									End Site
									{
OFFSET 0 -0.368620 0.368620
									}
								}
							}
						}
					}
				}
				JOINT RightCollar
				{
					OFFSET 0 0 0
					CHANNELS 3 Zrotation Yrotation Xrotation
					JOINT RightShoulder
					{
						OFFSET -3.50159 0.80383 -0.71526
CHANNELS 3 Zrotation Xrotation Yrotation
						JOINT RightElbow
						{
OFFSET 0 -5.363940 0.000000
CHANNELS 3 Zrotation Xrotation Yrotation
							JOINT RightWrist
							{
OFFSET 0 -3.580350 0.000000
CHANNELS 3 Zrotation Xrotation Yrotation
								JOINT rhand
								{
									OFFSET 0 0 0
CHANNELS 3 Zrotation Xrotation Yrotation
									JOINT RFingers
									{
OFFSET 0 -0.663750 0.000000
CHANNELS 3 Zrotation Xrotation Yrotation
										End Site
										{
OFFSET 0 -0.535130 0.000000
										}
									}
								}
								JOINT RThumb
								{
OFFSET 0 0.000000 0.000000
CHANNELS 3 Zrotation Xrotation Yrotation
									End Site
									{
OFFSET 0 -0.543300 0.543300
									}
								}
							}
						}
					}
				}
			}
		}
	}
}
MOTION
Frames: 11
Frame Time: 0.008333333333333333
1.113900 18.013400 -23.754500 0.643000 -5.530600 -4.355300 0.000000 0.000000 0.000000 -24.984500 -4.612900 -7.126200 1.937100 8.733800 24.966000 0.314600 -3.013200 -9.986100 0.008000 -0.578900 -1.590900 0.000000 0.000000 0.000000 20.326700 7.845800 -19.240200 -13.979800 -19.107900 72.142700 0.018800 -3.873700 -4.621900 -0.024300 -1.006900 2.767800 -0.470100 1.032300 12.001500 1.022800 1.374800 0.165600 1.102500 0.703800 -6.602600 -1.459800 -2.696800 -17.884800 -0.721500 -3.177600 21.910400 -0.445400 -1.680600 9.934700 0.000000 -0.000000 0.000000 4.698300 2.734600 -24.083100 13.609800 -22.174200 2.679100 29.583000 2.128100 -19.035100 0.000000 0.000000 0.000000 -7.125000 0.000000 0.000000 1.379900 51.614300 -0.224800 0.000000 -0.000000 0.000000 -0.249900 -4.284600 7.467900 -13.075400 -21.397600 -2.480700 -20.148000 -2.747600 -23.120800 0.000000 0.000000 0.000000 7.125000 0.000000 -0.000000 5.546500 5.620900 5.000600
1.112810 17.998655 -23.650839 0.660629 -5.399502 -4.412612 0.000000 0.000000 0.000000 -25.084378 -4.541036 -6.790601 1.967935 8.798804 25.168065 0.333447 -3.037561 -10.283235 0.005949 -0.494792 -1.359731 0.000000 0.000000 0.000000 20.226950 7.863045 -19.872293 -13.870306 -19.074052 71.807742 -0.013510 -3.291866 -5.301240 -0.032249 -1.153641 3.171609 -0.565427 0.881136 12.065543 1.118832 1.168184 0.052387 1.292961 0.608601 -6.757674 -1.647697 -2.600063 -17.349187 -0.661304 -3.015730 21.768596 -0.361805 -1.615660 9.788472 0.000000 0.000000 0.000000 4.697787 2.891982 -23.976298 13.650123 -22.232345 2.694357 29.691853 1.825836 -18.498013 0.000000 0.000000 0.000000 -7.125000 0.000000 0.000000 1.575746 51.035351 -0.232813 0.000000 0.000000 0.000000 -0.354330 -3.876304 7.668939 -13.051680 -21.362918 -2.472110 -20.136910 -2.877224 -23.056373 0.000000 0.000000 0.000000 7.125000 0.000000 0.000000 5.547846 5.689302 4.994574
1.111438 17.988510 -23.546727 0.705965 -5.255594 -4.457848 0.000000 0.000000 0.000000 -25.216872 -4.488358 -6.420778 1.986752 8.838445 25.291272 0.348937 -3.034892 -10.526539 0.003587 -0.362974 -0.997452 0.000000 0.000000 0.000000 20.096842 7.884917 -20.500211 -13.720945 -19.026661 71.349828 -0.042490 -2.759463 -5.869052 -0.043641 -1.337736 3.678652 -0.712244 0.728364 12.100892 1.221974 0.952511 -0.050245 1.522583 0.511117 -6.884817 -1.835792 -2.502874 -16.823562 -0.629293 -2.847766 21.589944 -0.287661 -1.550663 9.630762 0.000000 0.000000 0.000000 4.677976 3.054358 -23.879427 13.720212 -22.333234 2.720985 29.819215 1.580959 -18.076658 0.000000 0.000000 0.000000 -7.125000 0.000000 0.000000 1.770041 50.588019 -0.243197 0.000000 0.000000 0.000000 -0.483616 -3.424445 8.016774 -13.089156 -21.417617 -2.485865 -20.107170 -3.089994 -22.946408 0.000000 0.000000 0.000000 7.125000 0.000000 0.000000 5.556951 5.807840 4.990156
1.109707 17.984215 -23.442041 0.786547 -5.095391 -4.487721 0.000000 0.000000 0.000000 -25.390858 -4.460087 -6.007417 1.990278 8.845817 25.314158 0.360156 -2.997839 -10.701358 0.000830 -0.170461 -0.468379 0.000000 0.000000 0.000000 19.928112 7.912675 -21.122817 -13.520868 -18.962041 70.735492 -0.067236 -2.289944 -6.294978 -0.059411 -1.569354 4.317028 -0.924566 0.573546 12.099738 1.334161 0.725316 -0.139418 1.802025 0.410726 -6.976426 -2.024138 -2.405111 -16.310643 -0.633139 -2.672049 21.364416 -0.225541 -1.485595 9.458442 0.000000 0.000000 0.000000 4.633614 3.223088 -23.795191 13.828168 -22.488500 2.762077 29.970123 1.409089 -17.802537 0.000000 0.000000 0.000000 -7.125000 0.000000 0.000000 1.962362 50.308129 -0.256595 0.000000 0.000000 0.000000 -0.644525 -2.917168 8.551361 -13.204485 -21.586026 -2.528047 -20.053705 -3.408541 -22.778513 0.000000 0.000000 0.000000 7.125000 0.000000 0.000000 5.575927 5.990160 4.987784
1.105268 17.985336 -23.339555 0.780344 -4.898679 -4.460434 0.000000 0.000000 0.000000 -25.448378 -4.482149 -5.677117 2.000518 8.867127 25.380494 0.383337 -2.995036 -11.045572 0.000726 -0.175952 -0.483434 0.000000 0.000000 0.000000 19.877542 7.970170 -21.777191 -13.301153 -18.887321 70.057450 -0.086620 -2.256045 -6.853113 -0.056955 -1.538811 4.232795 -0.979286 0.501789 12.068170 1.366672 0.624124 -0.078212 1.885382 0.362643 -6.890683 -1.981470 -2.400566 -16.533594 -0.665369 -2.663245 21.379946 -0.245693 -1.481411 9.503989 0.000000 0.000000 0.000000 4.859539 2.966411 -24.126598 13.948312 -22.660582 2.808248 30.048013 1.473085 -18.091562 0.000000 0.000000 0.000000 -7.125000 0.000000 0.000000 2.000297 50.646005 -0.278514 0.000000 0.000000 0.000000 -0.591065 -2.787164 8.659583 -13.300515 -21.725882 -2.563514 -19.996346 -3.740687 -22.874358 0.000000 0.000000 0.000000 7.125000 0.000000 0.000000 5.619900 5.899935 5.037382
1.100706 17.984875 -23.238169 0.775965 -4.686547 -4.417606 0.000000 0.000000 0.000000 -25.505017 -4.501738 -5.364713 2.008880 8.884522 25.434651 0.411946 -3.013959 -11.458509 0.003344 -0.307550 -0.845114 0.000000 0.000000 0.000000 19.824161 8.010172 -22.448107 -13.071498 -18.807078 69.346692 -0.103776 -2.325087 -7.401664 -0.045078 -1.332750 3.665407 -0.971612 0.468790 12.034557 1.330927 0.578027 0.054160 1.851414 0.337244 -6.728504 -1.819271 -2.434910 -17.084355 -0.677313 -2.740155 21.457318 -0.295317 -1.504016 9.630830 0.000000 0.000000 0.000000 5.224653 2.481877 -24.612070 14.033687 -22.782817 2.841106 30.116644 1.458399 -18.241146 0.000000 0.000000 0.000000 -7.125000 0.000000 0.000000 2.048577 50.825899 -0.293830 0.000000 0.000000 0.000000 -0.416479 -2.863415 8.498378 -13.350468 -21.798608 -2.581990 -19.801310 -3.955790 -23.229531 0.000000 0.000000 0.000000 7.125000 0.000000 0.000000 5.771527 5.564238 5.214013
1.096668 17.979490 -23.138483 0.800518 -4.452237 -4.358307 0.000000 0.000000 0.000000 -25.593420 -4.501546 -5.066296 2.011316 8.889587 25.450422 0.448615 -3.069091 -11.968350 0.010972 -0.649560 -1.785177 0.000000 0.000000 0.000000 19.730693 8.004467 -23.144948 -12.826417 -18.718034 68.584910 -0.117752 -2.486765 -7.891696 -0.018474 -0.829960 2.281469 -0.877054 0.494049 12.005388 1.173352 0.612452 0.294112 1.625117 0.344872 -6.455344 -1.470145 -2.524851 -18.118207 -0.638015 -2.950746 21.596302 -0.383720 -1.565879 9.867256 0.000000 0.000000 0.000000 5.807064 1.636692 -25.304424 14.041765 -22.794420 2.844247 30.186713 1.208638 -17.932215 0.000000 0.000000 0.000000 -7.125000 0.000000 0.000000 2.163392 50.492159 -0.292676 0.000000 0.000000 0.000000 -0.046775 -3.268378 7.888594 -13.308222 -21.737129 -2.566348 -19.315251 -3.918608 -24.058817 0.000000 0.000000 0.000000 7.125000 0.000000 0.000000 6.144372 4.786365 5.645196
1.093019 17.970644 -23.036116 0.894731 -4.305965 -4.322066 0.000000 0.000000 0.000000 -25.759138 -4.444709 -4.746624 2.014581 8.896357 25.471554 0.483285 -3.054709 -12.436123 0.020843 -0.913330 -2.510554 0.000000 0.000000 0.000000 19.561179 8.062036 -23.783926 -12.567980 -18.619288 67.776867 -0.143329 -2.435170 -8.464698 -0.010004 -0.641058 1.761636 -0.865661 0.562985 12.027941 1.008222 0.693091 0.568723 1.430798 0.378142 -6.177359 -1.156995 -2.642580 -19.387900 -0.590918 -3.200384 21.822203 -0.475974 -1.644657 10.180265 0.000000 0.000000 0.000000 6.332732 0.714681 -25.895723 14.065247 -22.827911 2.853385 30.120726 0.946009 -17.539730 0.000000 0.000000 0.000000 -7.125000 0.000000 0.000000 2.149854 50.040010 -0.267636 0.000000 0.000000 0.000000 0.302553 -3.717604 7.231866 -13.291324 -21.712553 -2.560065 -19.581764 -3.802747 -23.738481 0.000000 0.000000 0.000000 7.125000 0.000000 0.000000 5.951450 5.073976 5.434515
1.089917 17.960528 -22.932904 1.022501 -4.200479 -4.300828 0.000000 0.000000 0.000000 -25.963367 -4.358853 -4.419267 2.019482 8.906506 25.503246 0.515565 -3.018386 -12.864879 0.028374 -1.085848 -2.985058 0.000000 0.000000 0.000000 19.354297 8.143218 -24.391766 -12.301825 -18.514646 66.941663 0.206538 -5.709998 -8.296013 -0.369340 -1.832620 5.254674 -0.972857 0.585432 12.078385 0.928534 0.701738 0.706065 1.406559 0.383421 -6.059965 -1.027793 -2.707064 -20.082259 -0.546531 -3.332556 21.912619 -0.512766 -1.686345 10.341036 0.000000 0.000000 0.000000 6.656314 0.156665 -26.225610 14.130938 -22.921324 2.879078 30.006602 0.692963 -17.083320 0.000000 0.000000 0.000000 -7.125000 0.000000 0.000000 2.094861 49.507490 -0.233232 0.000000 0.000000 0.000000 0.479454 -3.844277 6.854720 -13.294831 -21.717664 -2.561346 -20.059767 -3.752736 -23.135802 0.000000 0.000000 0.000000 7.125000 0.000000 0.000000 5.602690 5.619387 5.052287
1.088507 17.949693 -22.829692 1.196551 -4.147014 -4.310444 0.000000 0.000000 0.000000 -26.224026 -4.228460 -4.087962 2.029868 8.927982 25.570302 0.540823 -2.981909 -13.190927 0.023759 -0.992829 -2.729015 0.000000 0.000000 0.000000 19.093959 8.239058 -24.948150 -12.021678 -18.398676 66.056283 2.067880 -22.515222 -5.065990 -2.172345 -8.133810 23.661608 -1.448401 0.367661 12.175058 1.199001 0.365306 0.252574 2.020253 0.244886 -6.588910 -1.586805 -2.524359 -18.186491 -0.522747 -2.947338 21.353672 -0.323586 -1.558900 9.798628 0.000000 0.000000 0.000000 6.245453 1.146410 -25.640187 14.345567 -23.226152 2.963251 29.871465 0.494296 -16.476997 0.000000 0.000000 0.000000 -7.125000 0.000000 0.000000 2.035818 48.803277 -0.191498 0.000000 0.000000 0.000000 -0.005515 -2.629324 7.651248 -13.347847 -21.794785 -2.581027 -20.435626 -4.064103 -22.851552 0.000000 0.000000 0.000000 7.125000 0.000000 0.000000 5.343313 5.854210 4.792398
1.085864 17.937997 -22.728492 1.380580 -4.061680 -4.333982 0.000000 0.000000 0.000000 -26.484890 -4.074124 -3.759246 2.038816 8.946419 25.627871 0.565547 -3.075167 -13.487282 0.015858 -0.786132 -2.160565 0.000000 0.000000 0.000000 18.827214 8.292433 -25.479851 -11.726952 -18.271044 65.118665 1.585035 -19.915031 -7.265954 -1.702663 -5.295135 15.549948 -1.861398 0.212602 12.282779 1.371889 0.111954 0.031693 2.483227 0.141998 -6.875059 -1.883348 -2.407241 -17.237639 -0.574160 -2.703108 20.972304 -0.241431 -1.478520 9.491296 0.000000 0.000000 0.000000 6.022111 1.495611 -25.268976 14.456294 -23.383216 3.006847 30.261347 -0.065486 -15.031687 0.000000 0.000000 0.000000 -7.125000 0.000000 0.000000 2.549188 47.223977 -0.114815 0.000000 0.000000 0.000000 -0.308673 -1.949493 8.086784 -13.391870 -21.858722 -2.597381 -20.687293 -4.249348 -22.791865 0.000000 0.000000 0.000000 7.125000 0.000000 0.000000 5.181064 5.875724 4.642818
